<svg width="49" height="47" viewBox="0 0 49 47" fill="none" xmlns="http://www.w3.org/2000/svg">
<path d="M36.2935 0L39.1654 5.38485L44.5501 8.25676L39.1654 11.1287L36.2935 16.5135L33.4215 11.1287L28.0367 8.25676L33.4215 5.38485L36.2935 0ZM16.695 6.80502L22.5019 17.693L33.3899 23.5L22.5019 29.307L16.695 40.195L10.888 29.307L0 23.5L10.888 17.693L16.695 6.80502ZM42.1003 32.9364L38.4711 26.1314L34.8417 32.9364L28.0367 36.5656L34.8417 40.195L38.4711 47L42.1003 40.195L48.9053 36.5656L42.1003 32.9364Z" fill="white"/>
<path d="M36.2935 0L39.1654 5.38485L44.5501 8.25676L39.1654 11.1287L36.2935 16.5135L33.4215 11.1287L28.0367 8.25676L33.4215 5.38485L36.2935 0ZM16.695 6.80502L22.5019 17.693L33.3899 23.5L22.5019 29.307L16.695 40.195L10.888 29.307L0 23.5L10.888 17.693L16.695 6.80502ZM42.1003 32.9364L38.4711 26.1314L34.8417 32.9364L28.0367 36.5656L34.8417 40.195L38.4711 47L42.1003 40.195L48.9053 36.5656L42.1003 32.9364Z" fill="url(#paint0_linear_2001_21525)"/>
<defs>
<linearGradient id="paint0_linear_2001_21525" x1="11.353" y1="47" x2="47.2288" y2="4.46106" gradientUnits="userSpaceOnUse">
<stop stop-color="#441B91"/>
<stop offset="0.671875" stop-color="#C490FF"/>
<stop offset="1" stop-color="#4C0385"/>
</linearGradient>
</defs>
</svg>
