<svg xmlns="http://www.w3.org/2000/svg" viewBox="0 0 512 512" fill="#ffffff">
  <path d="M180.6 170.4h-42.5v171.2h42.5V285h50.8v56.6h42.5V170.4h-42.5v73.9h-50.8v-73.9zm220.7 55.7v-55.7h-42.5v171.2h42.5v-73.5c0-19.4 11.7-29.3 31.5-29.3h23.7v-40.4c-2.8-.7-5.5-1-8.3-1-17.2 0-31.5 9.7-46.9 28.7z"/>
  <path d="M331.5 170.4h-42.5v171.2h42.5V170.4zm-21.2-55.7c-13.8 0-24.4 10.6-24.4 24.4 0 13.8 10.6 24.4 24.4 24.4 13.8 0 24.4-10.6 24.4-24.4 0-13.8-10.6-24.4-24.4-24.4z"/>
  <path d="M256 0C114.6 0 0 114.6 0 256s114.6 256 256 256 256-114.6 256-256S397.4 0 256 0zm0 472c-119.3 0-216-96.7-216-216S136.7 40 256 40s216 96.7 216 216-96.7 216-216 216z"/>
</svg> 