<svg xmlns="http://www.w3.org/2000/svg" viewBox="0 0 512 512" fill="#ffffff">
  <path d="M256 64c-106 0-192 86-192 192s86 192 192 192 192-86 192-192S362 64 256 64zm0 336c-79.5 0-144-64.5-144-144s64.5-144 144-144 144 64.5 144 144-64.5 144-144 144z"/>
  <path d="M256 160c-53 0-96 43-96 96 0 53 43 96 96 96 16.4 0 31.8-4.1 45.3-11.4l58.7 11.4-16-55.3c5-12.7 8-26.4 8-40.7 0-53-43-96-96-96zm-64 96c0-35.3 28.7-64 64-64s64 28.7 64 64-28.7 64-64 64-64-28.7-64-64z"/>
  <path d="M224 240h64v32h-64z"/>
  <path d="M192 208h32v32h-32z"/>
  <path d="M288 208h32v32h-32z"/>
</svg> 